<svg xmlns="http://www.w3.org/2000/svg" viewBox="0 0 49.75 45.48"><g id="Слой_2" data-name="Слой 2"><g id="Слой_1-2" data-name="Слой 1"><path d="M5.33,23.81A13.07,13.07,0,1,1,23.81,5.33l1.06,1.06,1.06-1.06A13.07,13.07,0,1,1,44.42,23.81L24.87,43.36Z"/><path d="M35.18,3a11.57,11.57,0,0,1,8.18,19.75L24.87,41.24,6.39,22.75a11.56,11.56,0,0,1,0-16.36,11.56,11.56,0,0,1,16.36,0l2.12,2.12L27,6.39A11.46,11.46,0,0,1,35.18,3m0-3A14.53,14.53,0,0,0,24.87,4.27a14.57,14.57,0,0,0-20.6,20.6l20.6,20.61L45.48,24.87A14.57,14.57,0,0,0,35.18,0Z"/></g></g></svg>